<mxfile host="app.diagrams.net" agent="Mozilla/5.0 (X11; Linux x86_64; rv:138.0) Gecko/20100101 Firefox/138.0" version="27.0.4">
  <diagram name="Page-1" id="42789a77-a242-8287-6e28-9cd8cfd52e62">
    <mxGraphModel dx="1426" dy="956" grid="1" gridSize="10" guides="1" tooltips="1" connect="1" arrows="1" fold="1" page="1" pageScale="1" pageWidth="1100" pageHeight="850" background="none" math="0" shadow="0">
      <root>
        <mxCell id="0" />
        <mxCell id="1" parent="0" />
        <mxCell id="1ea317790d2ca983-15" value="evaluación de error" style="edgeStyle=none;rounded=1;html=1;labelBackgroundColor=none;startArrow=none;startFill=0;startSize=5;endArrow=classicThin;endFill=1;endSize=5;jettySize=auto;orthogonalLoop=1;strokeColor=#B3B3B3;strokeWidth=1;fontFamily=Verdana;fontSize=12;exitX=0.929;exitY=0.733;exitDx=0;exitDy=0;exitPerimeter=0;" parent="1" source="bt4GBoeUfVMATTtoJRUp-1" target="1ea317790d2ca983-4" edge="1">
          <mxGeometry x="0.6331" y="43" relative="1" as="geometry">
            <mxPoint as="offset" />
          </mxGeometry>
        </mxCell>
        <mxCell id="bt4GBoeUfVMATTtoJRUp-8" value="" style="edgeStyle=none;shape=connector;rounded=1;orthogonalLoop=1;jettySize=auto;html=1;strokeColor=#B3B3B3;strokeWidth=1;align=center;verticalAlign=middle;fontFamily=Verdana;fontSize=12;fontColor=default;labelBackgroundColor=none;startArrow=none;startFill=0;startSize=5;endArrow=classicThin;endFill=1;endSize=5;" parent="1" source="1ea317790d2ca983-3" target="bt4GBoeUfVMATTtoJRUp-1" edge="1">
          <mxGeometry relative="1" as="geometry" />
        </mxCell>
        <mxCell id="1ea317790d2ca983-3" value="Computación Aproximada" style="ellipse;whiteSpace=wrap;html=1;rounded=0;shadow=1;comic=0;labelBackgroundColor=none;strokeWidth=1;fontFamily=Verdana;fontSize=12;align=center;fillColor=#dae8fc;strokeColor=#6c8ebf;" parent="1" vertex="1">
          <mxGeometry x="640" y="170" width="105" height="60" as="geometry" />
        </mxCell>
        <mxCell id="1ea317790d2ca983-4" value="Métricas de error" style="ellipse;whiteSpace=wrap;html=1;rounded=0;shadow=1;comic=0;labelBackgroundColor=none;strokeWidth=1;fontFamily=Verdana;fontSize=12;align=center;fillColor=#dae8fc;strokeColor=#6c8ebf;" parent="1" vertex="1">
          <mxGeometry x="830" y="380" width="100" height="60" as="geometry" />
        </mxCell>
        <mxCell id="bt4GBoeUfVMATTtoJRUp-10" value="" style="edgeStyle=none;shape=connector;rounded=1;orthogonalLoop=1;jettySize=auto;html=1;strokeColor=#B3B3B3;strokeWidth=1;align=center;verticalAlign=middle;fontFamily=Verdana;fontSize=12;fontColor=default;labelBackgroundColor=none;startArrow=none;startFill=0;startSize=5;endArrow=classicThin;endFill=1;endSize=5;" parent="1" source="1ea317790d2ca983-8" target="bt4GBoeUfVMATTtoJRUp-9" edge="1">
          <mxGeometry relative="1" as="geometry" />
        </mxCell>
        <mxCell id="1ea317790d2ca983-8" value="Métodos de ML aplicados a ALS" style="ellipse;whiteSpace=wrap;html=1;rounded=0;shadow=1;comic=0;labelBackgroundColor=none;strokeWidth=1;fontFamily=Verdana;fontSize=12;align=center;fillColor=#e1d5e7;strokeColor=#9673a6;" parent="1" vertex="1">
          <mxGeometry x="460" y="440" width="122" height="90" as="geometry" />
        </mxCell>
        <mxCell id="bt4GBoeUfVMATTtoJRUp-28" style="edgeStyle=none;shape=connector;rounded=1;orthogonalLoop=1;jettySize=auto;html=1;exitX=0.283;exitY=0.95;exitDx=0;exitDy=0;entryX=0.5;entryY=0;entryDx=0;entryDy=0;strokeColor=#B3B3B3;strokeWidth=1;align=center;verticalAlign=middle;fontFamily=Verdana;fontSize=12;fontColor=default;labelBackgroundColor=none;startArrow=none;startFill=0;startSize=5;endArrow=classicThin;endFill=1;endSize=5;exitPerimeter=0;" parent="1" source="1ea317790d2ca983-9" target="bt4GBoeUfVMATTtoJRUp-26" edge="1">
          <mxGeometry relative="1" as="geometry" />
        </mxCell>
        <mxCell id="1ea317790d2ca983-9" value="Aprendizaje Automático" style="ellipse;whiteSpace=wrap;html=1;rounded=0;shadow=1;comic=0;labelBackgroundColor=none;strokeWidth=2;fontFamily=Verdana;fontSize=12;align=center;fillColor=#f8cecc;strokeColor=#b85450;fontStyle=1" parent="1" vertex="1">
          <mxGeometry x="310" y="280" width="120" height="60" as="geometry" />
        </mxCell>
        <mxCell id="1ea317790d2ca983-18" value="&lt;div&gt;&lt;br&gt;&lt;/div&gt;" style="edgeStyle=none;rounded=1;html=1;labelBackgroundColor=none;startArrow=none;startFill=0;startSize=5;endArrow=classicThin;endFill=1;endSize=5;jettySize=auto;orthogonalLoop=1;strokeColor=#B3B3B3;strokeWidth=1;fontFamily=Verdana;fontSize=12;exitX=1;exitY=1;exitDx=0;exitDy=0;" parent="1" source="1ea317790d2ca983-9" target="1ea317790d2ca983-8" edge="1">
          <mxGeometry x="0.0057" relative="1" as="geometry">
            <mxPoint as="offset" />
          </mxGeometry>
        </mxCell>
        <mxCell id="bt4GBoeUfVMATTtoJRUp-5" style="edgeStyle=none;shape=connector;rounded=1;orthogonalLoop=1;jettySize=auto;html=1;entryX=0.5;entryY=0;entryDx=0;entryDy=0;strokeColor=#B3B3B3;strokeWidth=1;align=center;verticalAlign=middle;fontFamily=Verdana;fontSize=12;fontColor=default;labelBackgroundColor=none;startArrow=none;startFill=0;startSize=5;endArrow=classicThin;endFill=1;endSize=5;exitX=1;exitY=1;exitDx=0;exitDy=0;" parent="1" source="bt4GBoeUfVMATTtoJRUp-1" target="bt4GBoeUfVMATTtoJRUp-2" edge="1">
          <mxGeometry relative="1" as="geometry">
            <mxPoint x="710" y="366" as="sourcePoint" />
          </mxGeometry>
        </mxCell>
        <mxCell id="bt4GBoeUfVMATTtoJRUp-1" value="Síntesis Lógica Aproximada" style="ellipse;whiteSpace=wrap;html=1;rounded=0;shadow=1;comic=0;labelBackgroundColor=none;strokeWidth=2;fontFamily=Verdana;fontSize=12;align=center;fillColor=#dae8fc;strokeColor=#6c8ebf;fontStyle=1" parent="1" vertex="1">
          <mxGeometry x="632.5" y="280" width="120" height="60" as="geometry" />
        </mxCell>
        <mxCell id="bt4GBoeUfVMATTtoJRUp-2" value="Métodos Clásicos" style="ellipse;whiteSpace=wrap;html=1;rounded=0;shadow=1;comic=0;labelBackgroundColor=none;strokeWidth=1;fontFamily=Verdana;fontSize=12;align=center;fillColor=#dae8fc;strokeColor=#6c8ebf;" parent="1" vertex="1">
          <mxGeometry x="692" y="455" width="85" height="60" as="geometry" />
        </mxCell>
        <mxCell id="bt4GBoeUfVMATTtoJRUp-4" style="edgeStyle=none;shape=connector;rounded=1;orthogonalLoop=1;jettySize=auto;html=1;exitX=0;exitY=1;exitDx=0;exitDy=0;entryX=0.772;entryY=0.08;entryDx=0;entryDy=0;entryPerimeter=0;strokeColor=#B3B3B3;strokeWidth=1;align=center;verticalAlign=middle;fontFamily=Verdana;fontSize=12;fontColor=default;labelBackgroundColor=none;startArrow=none;startFill=0;startSize=5;endArrow=classicThin;endFill=1;endSize=5;" parent="1" source="bt4GBoeUfVMATTtoJRUp-1" target="1ea317790d2ca983-8" edge="1">
          <mxGeometry relative="1" as="geometry" />
        </mxCell>
        <mxCell id="bt4GBoeUfVMATTtoJRUp-7" value="&lt;div&gt;contrastan con&lt;/div&gt;" style="edgeStyle=none;rounded=1;html=1;labelBackgroundColor=none;startArrow=none;startFill=0;startSize=5;endArrow=classicThin;endFill=1;endSize=5;jettySize=auto;orthogonalLoop=1;strokeColor=#B3B3B3;strokeWidth=1;fontFamily=Verdana;fontSize=12;exitX=0;exitY=0.5;exitDx=0;exitDy=0;entryX=1;entryY=0.5;entryDx=0;entryDy=0;" parent="1" source="bt4GBoeUfVMATTtoJRUp-2" target="1ea317790d2ca983-8" edge="1">
          <mxGeometry x="-0.0545" y="-15" relative="1" as="geometry">
            <mxPoint x="610" y="500" as="sourcePoint" />
            <mxPoint x="712" y="513" as="targetPoint" />
            <mxPoint as="offset" />
          </mxGeometry>
        </mxCell>
        <mxCell id="bt4GBoeUfVMATTtoJRUp-9" value="Síntesis de modelos de ML" style="ellipse;whiteSpace=wrap;html=1;rounded=0;shadow=1;comic=0;labelBackgroundColor=none;strokeWidth=1;fontFamily=Verdana;fontSize=12;align=center;fillColor=#e1d5e7;strokeColor=#9673a6;" parent="1" vertex="1">
          <mxGeometry x="464.5" y="570" width="113" height="80" as="geometry" />
        </mxCell>
        <mxCell id="bt4GBoeUfVMATTtoJRUp-11" value="Aprendizaje Supervisado" style="ellipse;whiteSpace=wrap;html=1;rounded=0;shadow=1;comic=0;labelBackgroundColor=none;strokeWidth=1;fontFamily=Verdana;fontSize=12;align=center;fillColor=#f8cecc;strokeColor=#b85450;" parent="1" vertex="1">
          <mxGeometry x="120" y="350" width="100" height="60" as="geometry" />
        </mxCell>
        <mxCell id="bt4GBoeUfVMATTtoJRUp-12" value="Aprendizaje Reforzado" style="ellipse;whiteSpace=wrap;html=1;rounded=0;shadow=1;comic=0;labelBackgroundColor=none;strokeWidth=1;fontFamily=Verdana;fontSize=12;align=center;fillColor=#f8cecc;strokeColor=#b85450;" parent="1" vertex="1">
          <mxGeometry x="180" y="410" width="100" height="60" as="geometry" />
        </mxCell>
        <mxCell id="bt4GBoeUfVMATTtoJRUp-23" value="" style="group" parent="1" vertex="1" connectable="0">
          <mxGeometry x="270" y="380" as="geometry" />
        </mxCell>
        <mxCell id="1ea317790d2ca983-19" value="&lt;div&gt;Tipos de&amp;nbsp;&lt;/div&gt;&lt;div&gt;aprendizaje&lt;/div&gt;" style="edgeStyle=none;rounded=1;html=1;labelBackgroundColor=none;startArrow=none;startFill=0;startSize=5;endArrow=none;endFill=1;endSize=5;jettySize=auto;orthogonalLoop=1;strokeColor=#B3B3B3;strokeWidth=1;fontFamily=Verdana;fontSize=12;exitX=0.042;exitY=0.767;exitDx=0;exitDy=0;exitPerimeter=0;" parent="bt4GBoeUfVMATTtoJRUp-23" source="1ea317790d2ca983-9" edge="1">
          <mxGeometry x="1" y="-33" relative="1" as="geometry">
            <mxPoint y="-20" as="targetPoint" />
            <mxPoint x="-1" y="2" as="offset" />
          </mxGeometry>
        </mxCell>
        <mxCell id="bt4GBoeUfVMATTtoJRUp-14" value="" style="endArrow=classic;html=1;rounded=1;strokeColor=#B3B3B3;strokeWidth=1;align=center;verticalAlign=middle;fontFamily=Verdana;fontSize=12;fontColor=default;labelBackgroundColor=none;edgeStyle=none;startSize=5;endSize=5;entryX=0.73;entryY=0.067;entryDx=0;entryDy=0;entryPerimeter=0;" parent="bt4GBoeUfVMATTtoJRUp-23" target="bt4GBoeUfVMATTtoJRUp-12" edge="1">
          <mxGeometry width="50" height="50" relative="1" as="geometry">
            <mxPoint y="-20" as="sourcePoint" />
            <mxPoint x="-30" y="210" as="targetPoint" />
          </mxGeometry>
        </mxCell>
        <mxCell id="bt4GBoeUfVMATTtoJRUp-22" value="" style="endArrow=classic;html=1;rounded=1;strokeColor=#B3B3B3;strokeWidth=1;align=center;verticalAlign=middle;fontFamily=Verdana;fontSize=12;fontColor=default;labelBackgroundColor=none;edgeStyle=none;startSize=5;endSize=5;entryX=0.95;entryY=0.267;entryDx=0;entryDy=0;entryPerimeter=0;" parent="bt4GBoeUfVMATTtoJRUp-23" target="bt4GBoeUfVMATTtoJRUp-11" edge="1">
          <mxGeometry width="50" height="50" relative="1" as="geometry">
            <mxPoint y="-20" as="sourcePoint" />
            <mxPoint x="5" y="64" as="targetPoint" />
          </mxGeometry>
        </mxCell>
        <mxCell id="bt4GBoeUfVMATTtoJRUp-27" style="edgeStyle=none;shape=connector;rounded=1;orthogonalLoop=1;jettySize=auto;html=1;exitX=1;exitY=0.5;exitDx=0;exitDy=0;entryX=0;entryY=0.5;entryDx=0;entryDy=0;strokeColor=#B3B3B3;strokeWidth=1;align=center;verticalAlign=middle;fontFamily=Verdana;fontSize=12;fontColor=default;labelBackgroundColor=none;startArrow=none;startFill=0;startSize=5;endArrow=classicThin;endFill=1;endSize=5;" parent="1" source="bt4GBoeUfVMATTtoJRUp-26" target="1ea317790d2ca983-8" edge="1">
          <mxGeometry relative="1" as="geometry" />
        </mxCell>
        <mxCell id="bt4GBoeUfVMATTtoJRUp-26" value="Modelos y técnicas" style="ellipse;whiteSpace=wrap;html=1;rounded=0;shadow=1;comic=0;labelBackgroundColor=none;strokeWidth=1;fontFamily=Verdana;fontSize=12;align=center;fillColor=#f8cecc;strokeColor=#b85450;" parent="1" vertex="1">
          <mxGeometry x="293" y="455" width="100" height="60" as="geometry" />
        </mxCell>
        <mxCell id="bt4GBoeUfVMATTtoJRUp-29" value="&lt;div&gt;evaluación&amp;nbsp;&lt;/div&gt;&lt;div&gt;de error&lt;/div&gt;" style="edgeStyle=none;rounded=1;html=1;labelBackgroundColor=none;startArrow=none;startFill=0;startSize=5;endArrow=classicThin;endFill=1;endSize=5;jettySize=auto;orthogonalLoop=1;strokeColor=#B3B3B3;strokeWidth=1;fontFamily=Verdana;fontSize=12;exitX=0;exitY=1;exitDx=0;exitDy=0;" parent="1" source="bt4GBoeUfVMATTtoJRUp-26" target="bt4GBoeUfVMATTtoJRUp-30" edge="1">
          <mxGeometry x="-0.4514" y="37" relative="1" as="geometry">
            <mxPoint x="320" y="566.21" as="sourcePoint" />
            <mxPoint as="offset" />
          </mxGeometry>
        </mxCell>
        <mxCell id="bt4GBoeUfVMATTtoJRUp-30" value="Validación de Modelos" style="ellipse;whiteSpace=wrap;html=1;rounded=0;shadow=1;comic=0;labelBackgroundColor=none;strokeWidth=1;fontFamily=Verdana;fontSize=12;align=center;fillColor=#f8cecc;strokeColor=#b85450;" parent="1" vertex="1">
          <mxGeometry x="180" y="560" width="100" height="60" as="geometry" />
        </mxCell>
      </root>
    </mxGraphModel>
  </diagram>
</mxfile>
